{"title":"Akcent - That's My Name [Music Video] 720p [Sbyky]","uid":9848873,"size":69036093,"categoryP":"video","categoryS":"music_videos","magnet":"?xt=urn:btih:cb654e6414046d8141e4287f14f3b053576aeb3d&amp;dn=Akcent+-+That%27s+My+Name+%5BMusic+Video%5D+720p+%5BSbyky%5D&amp;tr=udp%3A%2F%2Ftracker.openbittorrent.com%3A80&amp;tr=udp%3A%2F%2Fopen.demonii.com%3A1337&amp;tr=udp%3A%2F%2Ftracker.coppersurfer.tk%3A6969&amp;tr=udp%3A%2F%2Fexodus.desync.com%3A6969","seeders":1,"leechers":0,"uploader":"Sbyky","files":1,"time":1396120025,"description":"\n\nGeneral\nComplete name                            : Akcent - That's My Name [Music Video] 720p [Sbyky].mp4\nFormat                                   : MPEG-4\nFormat profile                           : Base Media / Version 2\nCodec ID                                 : mp42\nFile size                                : 65.8 MiB\nDuration                                 : 4mn 14s\nOverall bit rate mode                    : Variable\nOverall bit rate                         : 2 174 Kbps\nEncoded date                             : UTC 2010-03-15 17:18:29\nTagged date                              : UTC 2010-03-15 17:18:29\n\nVideo\nID                                       : 2\nFormat                                   : AVC\nFormat/Info                              : Advanced Video Codec\nFormat profile                           : &lt;a class=&quot;__cf_email__&quot; href=&quot;/cdn-cgi/l/email-protection&quot; data-cfemail=&quot;175f7e707f575b243926&quot;&gt;[email&amp;#160;protected]&lt;/a&gt;&lt;script cf-hash='f9e31' type=&quot;text/javascript&quot;&gt;\n/* &lt;![CDATA[ */!function(){try{var t=&quot;currentScript&quot;in document?document.currentScript:function(){for(var t=document.getElementsByTagName(&quot;script&quot;),e=t.length;e--;)if(t[e].getAttribute(&quot;cf-hash&quot;))return t[e]}();if(t&amp;&amp;t.previousSibling){var e,r,n,i,c=t.previousSibling,a=c.getAttribute(&quot;data-cfemail&quot;);if(a){for(e=&quot;&quot;,r=parseInt(a.substr(0,2),16),n=2;a.length-n;n+=2)i=parseInt(a.substr(n,2),16)^r,e+=String.fromCharCode(i);e=document.createTextNode(e),c.parentNode.replaceChild(e,c)}}}catch(u){}}();/* ]]&gt; */&lt;/script&gt;\nFormat settings, CABAC                   : Yes\nFormat settings, ReFrames                : 3 frames\nFormat settings, GOP                     : M=1, N=30\nCodec ID                                 : avc1\nCodec ID/Info                            : Advanced Video Coding\nDuration                                 : 4mn 13s\nBit rate                                 : 2 045 Kbps\nMaximum bit rate                         : 5 896 Kbps\nWidth                                    : 1 280 pixels\nHeight                                   : 720 pixels\nDisplay aspect ratio                     : 16:9\nFrame rate mode                          : Constant\nFrame rate                               : 29.970 fps\nColor space                              : YUV\nChroma subsampling                       : 4:2:0\nBit depth                                : 8 bits\nScan type                                : Progressive\nBits/(Pixel*Frame)                       : 0.074\nStream size                              : 61.9 MiB (94%)\nTitle                                    : (C) 2007 Google Inc. v08.13.2007.\nEncoded date                             : UTC 2010-03-15 17:18:29\nTagged date                              : UTC 2010-03-15 17:18:31\n\nAudio\nID                                       : 1\nFormat                                   : AAC\nFormat/Info                              : Advanced Audio Codec\nFormat profile                           : LC\nCodec ID                                 : 40\nDuration                                 : 4mn 14s\nBit rate mode                            : Variable\nBit rate                                 : 126 Kbps\nMaximum bit rate                         : 276 Kbps\nChannel(s)                               : 2 channels\nChannel positions                        : Front: L R\nSampling rate                            : 44.1 KHz\nCompression mode                         : Lossy\nStream size                              : 3.83 MiB (6%)\nTitle                                    : (C) 2007 Google Inc. v08.13.2007.\nEncoded date                             : UTC 2010-03-15 17:18:29\nTagged date                              : UTC 2010-03-15 17:18:31\n\nShared By Sbyky\n","torrent":{"xt":"urn:btih:cb654e6414046d8141e4287f14f3b053576aeb3d","amp;dn":"Akcent+-+That%27s+My+Name+%5BMusic+Video%5D+720p+%5BSbyky%5D","amp;tr":["udp%3A%2F%2Ftracker.openbittorrent.com%3A80","udp%3A%2F%2Fopen.demonii.com%3A1337","udp%3A%2F%2Ftracker.coppersurfer.tk%3A6969","udp%3A%2F%2Fexodus.desync.com%3A6969"],"infoHash":"cb654e6414046d8141e4287f14f3b053576aeb3d","infoHashBuffer":{"type":"Buffer","data":[203,101,78,100,20,4,109,129,65,228,40,127,20,243,176,83,87,106,235,61]},"announce":[],"urlList":[]}}